<mxfile host="app.diagrams.net" modified="2022-01-16T08:24:19.159Z" agent="5.0 (Macintosh; Intel Mac OS X 10_15_7) AppleWebKit/537.36 (KHTML, like Gecko) Chrome/97.0.4692.71 Safari/537.36" etag="NoRmBnqVNYcX6Vzfxtbv" version="16.2.7" type="github">
  <diagram id="srqYewtXc7YHwzR8Wh0L" name="Page-1">
    <mxGraphModel dx="946" dy="589" grid="1" gridSize="10" guides="1" tooltips="1" connect="1" arrows="1" fold="1" page="1" pageScale="1" pageWidth="827" pageHeight="1169" math="0" shadow="0">
      <root>
        <mxCell id="0" />
        <mxCell id="1" parent="0" />
        <mxCell id="FQjklg7gbtDswjqx5rzU-1" value="Moodle" style="rounded=1;whiteSpace=wrap;html=1;" vertex="1" parent="1">
          <mxGeometry x="450" y="120" width="94" height="30" as="geometry" />
        </mxCell>
        <mxCell id="FQjklg7gbtDswjqx5rzU-2" value="Събиране на изискванията" style="rounded=0;whiteSpace=wrap;html=1;fillColor=#dae8fc;strokeColor=#6c8ebf;" vertex="1" parent="1">
          <mxGeometry x="110" y="290" width="120" height="40" as="geometry" />
        </mxCell>
        <mxCell id="FQjklg7gbtDswjqx5rzU-3" value="Изготвяне на спецификацията" style="rounded=0;whiteSpace=wrap;html=1;fillColor=#dae8fc;strokeColor=#6c8ebf;" vertex="1" parent="1">
          <mxGeometry x="110" y="350" width="120" height="40" as="geometry" />
        </mxCell>
        <mxCell id="FQjklg7gbtDswjqx5rzU-4" value="Планиране" style="rounded=0;whiteSpace=wrap;html=1;fillColor=#dae8fc;strokeColor=#6c8ebf;" vertex="1" parent="1">
          <mxGeometry x="110" y="230" width="120" height="40" as="geometry" />
        </mxCell>
        <mxCell id="FQjklg7gbtDswjqx5rzU-5" value="Събиране на изискванията" style="rounded=0;whiteSpace=wrap;html=1;fillColor=#fff2cc;strokeColor=#d6b656;" vertex="1" parent="1">
          <mxGeometry x="110" y="170" width="120" height="40" as="geometry" />
        </mxCell>
        <mxCell id="FQjklg7gbtDswjqx5rzU-6" value="Разработване и конфигуриране на софтуерна система" style="rounded=0;whiteSpace=wrap;html=1;fillColor=#fff2cc;strokeColor=#d6b656;" vertex="1" parent="1">
          <mxGeometry x="280" y="160" width="120" height="60" as="geometry" />
        </mxCell>
        <mxCell id="FQjklg7gbtDswjqx5rzU-8" value="Set-up и създаване на база данни" style="rounded=0;whiteSpace=wrap;html=1;fillColor=#dae8fc;strokeColor=#6c8ebf;" vertex="1" parent="1">
          <mxGeometry x="280" y="230" width="120" height="40" as="geometry" />
        </mxCell>
        <mxCell id="FQjklg7gbtDswjqx5rzU-9" value="Онлайн обучение" style="rounded=0;whiteSpace=wrap;html=1;fillColor=#dae8fc;strokeColor=#6c8ebf;" vertex="1" parent="1">
          <mxGeometry x="280" y="350" width="120" height="40" as="geometry" />
        </mxCell>
        <mxCell id="FQjklg7gbtDswjqx5rzU-10" value="Верификация и валидация" style="rounded=0;whiteSpace=wrap;html=1;fillColor=#dae8fc;strokeColor=#6c8ebf;" vertex="1" parent="1">
          <mxGeometry x="280" y="410" width="120" height="40" as="geometry" />
        </mxCell>
        <mxCell id="FQjklg7gbtDswjqx5rzU-11" value="Потребителски профил" style="rounded=0;whiteSpace=wrap;html=1;fillColor=#dae8fc;strokeColor=#6c8ebf;" vertex="1" parent="1">
          <mxGeometry x="280" y="290" width="120" height="40" as="geometry" />
        </mxCell>
        <mxCell id="FQjklg7gbtDswjqx5rzU-12" value="Deployment" style="rounded=0;whiteSpace=wrap;html=1;fillColor=#fff2cc;strokeColor=#d6b656;" vertex="1" parent="1">
          <mxGeometry x="450" y="170" width="120" height="40" as="geometry" />
        </mxCell>
        <mxCell id="FQjklg7gbtDswjqx5rzU-13" value="Deploy" style="rounded=0;whiteSpace=wrap;html=1;fillColor=#dae8fc;strokeColor=#6c8ebf;" vertex="1" parent="1">
          <mxGeometry x="450" y="230" width="120" height="40" as="geometry" />
        </mxCell>
      </root>
    </mxGraphModel>
  </diagram>
</mxfile>
